<svg xmlns="http://www.w3.org/2000/svg" xml:space="preserve" width="1000" height="190.678" viewBox="0 0 264.583 50.45">
  <defs>
    <filter id="a" width="1" height="1" x="0" y="0" style="color-interpolation-filters:sRGB">
      <feColorMatrix result="fbSourceGraphic" values="-1 0 0 0 1 0 -1 0 0 1 0 0 -1 0 1 -0.21 -0.72 -0.07 2 0"/>
      <feColorMatrix in="fbSourceGraphic" result="fbSourceGraphicAlpha" values="0 0 0 -1 0 0 0 0 -1 0 0 0 0 -1 0 0 0 0 1 0"/>
      <feColorMatrix in="fbSourceGraphic" result="color2" values="-1 0 0 0 1 0 -1 0 0 1 0 0 -1 0 1 -0.21 -0.72 -0.07 2 0"/>
    </filter>
  </defs>
  <path d="M94.54 161.83v-5.044H63.15v10.09H94.54zm17.939 0v-5.044H121.448v-10.09h4.484v-10.09h-4.484V126.515H112.479v-10.09H103.51v10.09H112.479V136.606H121.448v10.09H112.479v10.09H103.51v10.09H112.479zm31.391 0v-5.044H134.901v-10.09h-4.484v10.09h4.484v10.09H143.87zm13.453-5.044v-10.09h26.907v-10.09H188.715V126.515H184.23v-10.09H152.84v50.451h4.484zm0-25.226v-5.045h22.422V136.606h-22.422zm80.72 30.27v-5.044H242.529v-10.09H247.013v-10.09H242.528V126.515h-4.484v-10.09h-35.876v10.09h-4.484V136.606H193.199v10.09H197.684v10.09h4.484v10.09h35.876zm-31.39-10.09v-5.044H202.168v-10.09H206.653V126.515h26.906V136.606H238.044v10.09H233.559v10.09h-26.906zm76.235 10.09v-5.044H287.373v-10.09H282.888v-10.09h-22.422V126.515h26.907v-10.09h-31.391v10.09H251.497V136.606H255.982v10.09h22.422v10.09h-26.907v10.09h31.391zm44.845 0v-5.044h-26.907v-10.09H323.25v-10.09h-22.422V126.515h26.906v-10.09h-31.391v50.451h31.391zM85.572 141.65v-5.044H63.15v10.09h22.422zm49.33-10.09v-5.045h8.968v-10.09H134.901v10.09h-4.484V136.606h4.484zM94.54 121.47v-5.045H63.15v10.09H94.54z" style="fill:#000;stroke-width:2.11864;filter:url(#a)" transform="translate(-63.15 -116.425)"/>
</svg>
